<svg width="17" height="16" viewBox="0 0 17 16" fill="none" xmlns="http://www.w3.org/2000/svg">
<path d="M1.5 7.25C1.08579 7.25 0.75 7.58579 0.75 8C0.75 8.41421 1.08579 8.75 1.5 8.75V7.25ZM16.0303 8.53033C16.3232 8.23744 16.3232 7.76256 16.0303 7.46967L11.2574 2.6967C10.9645 2.40381 10.4896 2.40381 10.1967 2.6967C9.90381 2.98959 9.90381 3.46447 10.1967 3.75736L14.4393 8L10.1967 12.2426C9.90381 12.5355 9.90381 13.0104 10.1967 13.3033C10.4896 13.5962 10.9645 13.5962 11.2574 13.3033L16.0303 8.53033ZM1.5 8.75H15.5V7.25H1.5V8.75Z" fill="white"/>
</svg>
