<svg xmlns="http://www.w3.org/2000/svg" xmlns:xlink="http://www.w3.org/1999/xlink" width="1920" zoomAndPan="magnify" viewBox="0 0 1440 809.999993" height="1080" preserveAspectRatio="xMidYMid meet" version="1.0"><defs><g/></defs><rect x="-144" width="1728" fill="#ffffff" y="-80.999999" height="971.999992" fill-opacity="1"/><rect x="-144" width="1728" fill="#ffffff" y="-80.999999" height="971.999992" fill-opacity="1"/><g fill="#ff6600" fill-opacity="1"><g transform="translate(178.387322, 447.716379)"><g><path d="M 3.234375 0 L 10.015625 0 C 10.53125 0 11.046875 -0.34375 11.546875 -1.359375 L 28.53125 -33.46875 C 29.046875 -34.65625 29.390625 -35.171875 30.75 -35.171875 L 102.78125 -39.078125 C 104.140625 -39.078125 104.8125 -38.90625 105.328125 -37.875 L 127.234375 -1.359375 C 127.75 -0.515625 128.25 0 129.109375 0 L 155.09375 0 C 156.453125 0 156.96875 -0.515625 156.109375 -2.203125 L 84.59375 -119.59375 C 84.265625 -120.265625 83.921875 -120.78125 82.734375 -120.78125 L 57.25 -120.78125 C 51.296875 -120.78125 51.984375 -120.4375 56.5625 -117.21875 C 58.4375 -115.859375 60.140625 -113.640625 60.140625 -111.78125 C 60.140625 -111.265625 59.96875 -110.421875 59.28125 -109.0625 L 2.03125 -1.875 C 1.1875 -0.34375 1.703125 0 3.234375 0 Z M 33.640625 -43.3125 L 59.109375 -90.203125 C 60.984375 -93.4375 63.03125 -97.84375 64.375 -100.90625 C 65.734375 -104.140625 66.078125 -103.453125 67.4375 -101.078125 C 68.96875 -98.015625 71.515625 -92.921875 73.21875 -90.203125 L 98.359375 -49.609375 C 99.03125 -48.078125 99.03125 -47.390625 97.171875 -47.21875 L 35.328125 -41.109375 C 32.609375 -40.765625 32.78125 -41.625 33.640625 -43.3125 Z M 33.640625 -43.3125 "/></g></g></g><g fill="#ff6600" fill-opacity="1"><g transform="translate(333.314828, 447.716379)"><g><path d="M 46.890625 -114.328125 C 56.90625 -113.984375 62.6875 -105.65625 62.34375 -94.953125 C 62.171875 -92.578125 62 -90.71875 61.5 -89.015625 C 60.640625 -86.640625 61.828125 -86.96875 63.1875 -88.171875 C 70.15625 -94.28125 74.0625 -105.15625 68.96875 -112.453125 C 64.546875 -119.59375 55.71875 -122.140625 47.0625 -122.484375 C 26.5 -123.15625 13.078125 -109.5625 12.40625 -92.578125 C 12.0625 -80.859375 15.796875 -71.859375 20.21875 -63.359375 L 30.40625 -42.8125 C 35.84375 -32.28125 38.734375 -24.96875 38.390625 -18 C 38.21875 -10.703125 31.9375 -6.28125 26.5 -6.453125 C 13.25 -6.96875 7.296875 -17.328125 8.828125 -30.75 C 9 -32.78125 7.984375 -32.453125 7.140625 -31.765625 C 1.359375 -27.015625 -2.375 -18.6875 0.34375 -12.234375 C 4.25 -1.703125 14.609375 1.359375 26.5 1.703125 C 47.0625 2.546875 58.78125 -13.25 59.453125 -29.734375 C 59.796875 -38.734375 58.09375 -46.546875 52.484375 -57.25 L 42.125 -77.46875 C 36.1875 -89.015625 32.953125 -94.953125 33.296875 -102.265625 C 33.46875 -110.25 40.09375 -114.5 46.890625 -114.328125 Z M 46.890625 -114.328125 "/></g></g></g><g fill="#ff6600" fill-opacity="1"><g transform="translate(400.5859, 447.716379)"><g><path d="M 3.234375 0 L 10.015625 0 C 10.53125 0 11.046875 -0.34375 11.546875 -1.359375 L 28.53125 -33.46875 C 29.046875 -34.65625 29.390625 -35.171875 30.75 -35.171875 L 102.78125 -39.078125 C 104.140625 -39.078125 104.8125 -38.90625 105.328125 -37.875 L 127.234375 -1.359375 C 127.75 -0.515625 128.25 0 129.109375 0 L 155.09375 0 C 156.453125 0 156.96875 -0.515625 156.109375 -2.203125 L 84.59375 -119.59375 C 84.265625 -120.265625 83.921875 -120.78125 82.734375 -120.78125 L 57.25 -120.78125 C 51.296875 -120.78125 51.984375 -120.4375 56.5625 -117.21875 C 58.4375 -115.859375 60.140625 -113.640625 60.140625 -111.78125 C 60.140625 -111.265625 59.96875 -110.421875 59.28125 -109.0625 L 2.03125 -1.875 C 1.1875 -0.34375 1.703125 0 3.234375 0 Z M 33.640625 -43.3125 L 59.109375 -90.203125 C 60.984375 -93.4375 63.03125 -97.84375 64.375 -100.90625 C 65.734375 -104.140625 66.078125 -103.453125 67.4375 -101.078125 C 68.96875 -98.015625 71.515625 -92.921875 73.21875 -90.203125 L 98.359375 -49.609375 C 99.03125 -48.078125 99.03125 -47.390625 97.171875 -47.21875 L 35.328125 -41.109375 C 32.609375 -40.765625 32.78125 -41.625 33.640625 -43.3125 Z M 33.640625 -43.3125 "/></g></g></g><g fill="#ff6600" fill-opacity="1"><g transform="translate(555.513406, 447.716379)"><g><path d="M 47.734375 -60.640625 C 66.421875 -57.59375 87.484375 -71.6875 87.484375 -93.59375 C 87.65625 -102.4375 81.875 -115.6875 63.703125 -119.59375 C 58.953125 -120.609375 53.34375 -120.953125 46.546875 -120.78125 C 32.28125 -120.265625 18.171875 -120.265625 3.90625 -120.78125 C 2.71875 -120.78125 2.71875 -120.265625 3.5625 -119.59375 C 7.46875 -117.046875 10.1875 -113.140625 10.1875 -108.890625 L 10.1875 -1.359375 C 10.1875 -0.515625 10.703125 0 11.546875 0 L 33.96875 0 C 34.828125 0 35.328125 -0.515625 35.328125 -1.359375 L 35.328125 -111.265625 C 35.328125 -112.125 35.84375 -112.625 36.6875 -112.796875 C 39.078125 -112.796875 42.125 -112.96875 43.65625 -112.96875 C 55.71875 -112.96875 60.640625 -102.78125 60.640625 -93.765625 C 60.640625 -75.59375 53.171875 -67.4375 39.921875 -64.71875 C 37.03125 -64.046875 36.515625 -63.875 39.578125 -62.6875 C 41.953125 -61.671875 44.84375 -60.984375 47.734375 -60.640625 Z M 47.734375 -60.640625 "/></g></g></g><g fill="#007bff" fill-opacity="1"><g transform="translate(648.78583, 435.449698)"><g><path d="M 11.515625 3.890625 C 8.816406 3.890625 6.6875 2.976562 5.125 1.15625 C 3.570312 -0.65625 2.796875 -3.476562 2.796875 -7.3125 C 2.796875 -11.675781 3.859375 -16.503906 5.984375 -21.796875 C 8.117188 -27.085938 11.675781 -33.984375 16.65625 -42.484375 L 20.546875 -49.03125 C 19.503906 -48.820312 18.175781 -48.457031 16.5625 -47.9375 C 14.957031 -47.414062 13.378906 -46.789062 11.828125 -46.0625 C 10.273438 -45.34375 9.34375 -44.984375 9.03125 -44.984375 C 8.195312 -44.984375 7.78125 -45.65625 7.78125 -47 C 7.78125 -48.25 8.09375 -49.546875 8.71875 -50.890625 C 9.34375 -52.242188 10.117188 -52.972656 11.046875 -53.078125 C 13.015625 -53.390625 14.957031 -53.644531 16.875 -53.84375 C 18.800781 -54.050781 21.113281 -54.257812 23.8125 -54.46875 C 27.238281 -60.800781 30.25 -65.9375 32.84375 -69.875 C 34.914062 -73.09375 36.675781 -75.425781 38.125 -76.875 C 39.582031 -78.332031 40.929688 -79.0625 42.171875 -79.0625 C 43.316406 -79.0625 44.484375 -78.773438 45.671875 -78.203125 C 46.867188 -77.640625 47.859375 -76.96875 48.640625 -76.1875 C 49.421875 -75.40625 49.8125 -74.703125 49.8125 -74.078125 C 49.8125 -73.972656 49.445312 -73.664062 48.71875 -73.15625 C 47.15625 -71.90625 45.128906 -69.878906 42.640625 -67.078125 C 40.148438 -64.273438 37.144531 -60.28125 33.625 -55.09375 C 36.425781 -55.300781 41.09375 -55.40625 47.625 -55.40625 C 48.039062 -55.40625 48.378906 -55.300781 48.640625 -55.09375 C 48.898438 -54.882812 49.03125 -54.625 49.03125 -54.3125 C 49.03125 -53.59375 48.195312 -53 46.53125 -52.53125 C 44.875 -52.0625 42.382812 -51.515625 39.0625 -50.890625 C 36.882812 -50.472656 34.757812 -49.976562 32.6875 -49.40625 C 30.613281 -48.84375 29.265625 -48.300781 28.640625 -47.78125 C 23.765625 -39.894531 19.742188 -32.394531 16.578125 -25.28125 C 13.410156 -18.175781 11.828125 -12.132812 11.828125 -7.15625 C 11.828125 -5.394531 12.113281 -4.148438 12.6875 -3.421875 C 13.257812 -2.691406 14.0625 -2.328125 15.09375 -2.328125 C 17.269531 -2.328125 20.203125 -3.625 23.890625 -6.21875 C 27.578125 -8.8125 30.613281 -11.359375 33 -13.859375 C 34.65625 -15.722656 36.519531 -18.003906 38.59375 -20.703125 C 40.78125 -23.503906 42.519531 -25.65625 43.8125 -27.15625 C 45.113281 -28.664062 46.019531 -29.421875 46.53125 -29.421875 C 46.945312 -29.421875 47.285156 -29.316406 47.546875 -29.109375 C 47.804688 -28.898438 47.9375 -28.640625 47.9375 -28.328125 C 47.9375 -28.015625 47.882812 -27.804688 47.78125 -27.703125 C 46.53125 -25.523438 44.816406 -22.929688 42.640625 -19.921875 C 40.460938 -16.910156 38.234375 -14.109375 35.953125 -11.515625 C 32.109375 -6.953125 28.113281 -3.242188 23.96875 -0.390625 C 19.820312 2.460938 15.671875 3.890625 11.515625 3.890625 Z M 11.515625 3.890625 "/></g></g></g><g fill="#007bff" fill-opacity="1"><g transform="translate(684.580563, 435.449698)"><g><path d="M 19.765625 2.328125 C 15.304688 2.328125 11.597656 1.238281 8.640625 -0.9375 C 5.679688 -3.113281 4.203125 -6.898438 4.203125 -12.296875 C 4.203125 -17.378906 6.117188 -23.421875 9.953125 -30.421875 C 13.796875 -37.429688 18.625 -43.453125 24.4375 -48.484375 C 30.25 -53.515625 36.007812 -56.03125 41.71875 -56.03125 C 44.613281 -56.03125 46.757812 -55.273438 48.15625 -53.765625 C 49.5625 -52.265625 50.265625 -50.320312 50.265625 -47.9375 C 50.265625 -43.789062 48.265625 -39.585938 44.265625 -35.328125 C 40.273438 -31.078125 35.476562 -27.578125 29.875 -24.828125 C 24.28125 -22.078125 19.457031 -20.703125 15.40625 -20.703125 C 14.269531 -18.109375 13.703125 -15.671875 13.703125 -13.390625 C 13.703125 -10.273438 14.21875 -7.78125 15.25 -5.90625 C 16.289062 -4.039062 18.367188 -3.109375 21.484375 -3.109375 C 25.941406 -3.109375 30.140625 -4.300781 34.078125 -6.6875 C 38.023438 -9.070312 41.609375 -12.03125 44.828125 -15.5625 C 48.046875 -19.09375 51.519531 -23.503906 55.25 -28.796875 C 55.664062 -29.316406 56.082031 -29.578125 56.5 -29.578125 C 56.8125 -29.578125 57.070312 -29.367188 57.28125 -28.953125 C 57.488281 -28.535156 57.59375 -28.066406 57.59375 -27.546875 C 57.59375 -26.816406 57.332031 -25.957031 56.8125 -24.96875 C 56.289062 -23.988281 55.351562 -22.617188 54 -20.859375 C 50.164062 -15.566406 46.507812 -11.257812 43.03125 -7.9375 C 39.5625 -4.613281 35.929688 -2.070312 32.140625 -0.3125 C 28.347656 1.445312 24.222656 2.328125 19.765625 2.328125 Z M 16.8125 -23.8125 C 20.238281 -24.019531 24.179688 -25.578125 28.640625 -28.484375 C 33.097656 -31.390625 36.960938 -34.65625 40.234375 -38.28125 C 43.503906 -41.914062 45.140625 -44.820312 45.140625 -47 C 45.140625 -48.457031 44.515625 -49.1875 43.265625 -49.1875 C 41.085938 -49.1875 38.285156 -47.941406 34.859375 -45.453125 C 31.441406 -42.960938 28.070312 -39.742188 24.75 -35.796875 C 21.425781 -31.859375 18.78125 -27.863281 16.8125 -23.8125 Z M 16.8125 -23.8125 "/></g></g></g><g fill="#007bff" fill-opacity="1"><g transform="translate(731.113713, 435.449698)"><g><path d="M 16.34375 1.25 C 14.882812 1.25 13.53125 1.015625 12.28125 0.546875 C 11.039062 0.078125 10.421875 -0.46875 10.421875 -1.09375 C 10.421875 -1.300781 10.472656 -1.457031 10.578125 -1.5625 L 13.546875 -6.6875 C 18.316406 -14.675781 22.234375 -21.679688 25.296875 -27.703125 C 28.359375 -33.722656 30.820312 -39.894531 32.6875 -46.21875 C 32.894531 -46.84375 33 -47.570312 33 -48.40625 C 33 -49.03125 32.84375 -49.46875 32.53125 -49.71875 C 32.21875 -49.976562 31.695312 -50.109375 30.96875 -50.109375 C 29.625 -50.109375 27.910156 -48.941406 25.828125 -46.609375 C 23.753906 -44.273438 20.851562 -40.359375 17.125 -34.859375 C 13.90625 -30.191406 10.21875 -25.003906 6.0625 -19.296875 C 5.238281 -18.160156 4.671875 -17.59375 4.359375 -17.59375 C 4.046875 -17.59375 3.8125 -17.847656 3.65625 -18.359375 C 3.5 -18.878906 3.421875 -19.453125 3.421875 -20.078125 C 3.421875 -21.015625 3.523438 -21.640625 3.734375 -21.953125 C 9.023438 -29.523438 12.296875 -34.347656 13.546875 -36.421875 L 25.21875 -55.25 C 25.53125 -55.769531 26.28125 -56.1875 27.46875 -56.5 C 28.664062 -56.8125 29.78125 -56.96875 30.8125 -56.96875 C 32.476562 -56.96875 34.242188 -56.578125 36.109375 -55.796875 C 37.972656 -55.015625 39.523438 -53.945312 40.765625 -52.59375 C 42.015625 -51.25 42.640625 -49.800781 42.640625 -48.25 C 42.640625 -46.488281 42.195312 -44.566406 41.3125 -42.484375 C 40.4375 -40.410156 39.171875 -37.816406 37.515625 -34.703125 C 36.054688 -32.003906 35.066406 -30.085938 34.546875 -28.953125 C 39.222656 -34.960938 44 -40.144531 48.875 -44.5 C 53.75 -48.863281 58.257812 -51.046875 62.40625 -51.046875 C 65.101562 -51.046875 67.019531 -50.085938 68.15625 -48.171875 C 69.300781 -46.253906 69.875 -43.789062 69.875 -40.78125 C 69.875 -38.707031 69.664062 -36.601562 69.25 -34.46875 C 68.84375 -32.34375 68.328125 -30.554688 67.703125 -29.109375 L 66.140625 -25.375 C 70.296875 -30.039062 73.382812 -33.4375 75.40625 -35.5625 C 77.425781 -37.6875 78.957031 -39.21875 80 -40.15625 C 81.65625 -41.707031 83.648438 -43.207031 85.984375 -44.65625 C 88.328125 -46.113281 90.535156 -46.84375 92.609375 -46.84375 C 94.578125 -46.84375 96.128906 -46.191406 97.265625 -44.890625 C 98.410156 -43.597656 98.984375 -41.65625 98.984375 -39.0625 C 98.984375 -37.820312 98.722656 -35.488281 98.203125 -32.0625 C 98.097656 -31.332031 97.8125 -29.046875 97.34375 -25.203125 C 96.882812 -21.367188 96.65625 -18 96.65625 -15.09375 C 96.65625 -12.5 96.882812 -10.472656 97.34375 -9.015625 C 97.8125 -7.566406 98.515625 -6.84375 99.453125 -6.84375 C 100.804688 -6.84375 102.878906 -8.320312 105.671875 -11.28125 C 108.472656 -14.238281 112.003906 -18.363281 116.265625 -23.65625 C 118.960938 -27.082031 120.625 -28.796875 121.25 -28.796875 C 121.5625 -28.796875 121.867188 -28.691406 122.171875 -28.484375 C 122.484375 -28.273438 122.640625 -27.960938 122.640625 -27.546875 C 122.640625 -26.816406 121.1875 -24.453125 118.28125 -20.453125 C 115.375 -16.460938 112.882812 -13.273438 110.8125 -10.890625 C 107.90625 -7.578125 105.128906 -4.851562 102.484375 -2.71875 C 99.835938 -0.59375 97.375 0.46875 95.09375 0.46875 C 92.289062 0.46875 90.34375 -0.90625 89.25 -3.65625 C 88.164062 -6.40625 87.625 -10.113281 87.625 -14.78125 C 87.625 -18 87.78125 -21.164062 88.09375 -24.28125 C 88.300781 -28.21875 88.40625 -30.96875 88.40625 -32.53125 C 88.40625 -34.914062 88.222656 -36.597656 87.859375 -37.578125 C 87.492188 -38.566406 86.894531 -39.0625 86.0625 -39.0625 C 84.40625 -39.0625 82.382812 -38.023438 80 -35.953125 C 77.613281 -33.878906 74.550781 -30.507812 70.8125 -25.84375 C 69.257812 -23.863281 67.703125 -21.707031 66.140625 -19.375 C 64.585938 -17.039062 63.140625 -14.785156 61.796875 -12.609375 C 59.921875 -9.492188 58.773438 -7.625 58.359375 -7 C 57.117188 -5.550781 55.847656 -4.460938 54.546875 -3.734375 C 53.253906 -3.003906 52.140625 -2.640625 51.203125 -2.640625 C 50.273438 -2.640625 49.523438 -2.953125 48.953125 -3.578125 C 48.378906 -4.203125 48.09375 -5.082031 48.09375 -6.21875 C 48.09375 -7.050781 48.351562 -8.25 48.875 -9.8125 C 49.5 -11.363281 50.195312 -12.992188 50.96875 -14.703125 C 51.75 -16.421875 52.453125 -18.054688 53.078125 -19.609375 C 55.671875 -25.210938 57.742188 -29.90625 59.296875 -33.6875 C 60.859375 -37.476562 61.640625 -40.304688 61.640625 -42.171875 C 61.640625 -43.421875 61.378906 -44.484375 60.859375 -45.359375 C 60.335938 -46.242188 59.554688 -46.6875 58.515625 -46.6875 C 57.378906 -46.6875 55.617188 -45.882812 53.234375 -44.28125 C 50.847656 -42.675781 48.71875 -40.832031 46.84375 -38.75 C 44.144531 -35.945312 40.929688 -32.109375 37.203125 -27.234375 C 33.773438 -22.671875 30.503906 -17.898438 27.390625 -12.921875 C 24.273438 -7.941406 21.785156 -3.632812 19.921875 0 C 19.503906 0.832031 18.3125 1.25 16.34375 1.25 Z M 16.34375 1.25 "/></g></g></g><g fill="#007bff" fill-opacity="1"><g transform="translate(842.544277, 435.449698)"><g><path d="M -20.546875 54.3125 C -21.992188 54.3125 -23.960938 53.84375 -26.453125 52.90625 C -28.941406 51.976562 -31.144531 50.835938 -33.0625 49.484375 C -34.988281 48.140625 -35.953125 46.847656 -35.953125 45.609375 C -35.953125 42.703125 -32.578125 37.359375 -25.828125 29.578125 C -19.085938 21.796875 -11.4375 13.984375 -2.875 6.140625 C 5.6875 -1.691406 11.9375 -6.800781 15.875 -9.1875 C 17.738281 -13.4375 19.757812 -19.21875 21.9375 -26.53125 C 24.125 -33.851562 25.21875 -38.65625 25.21875 -40.9375 C 25.21875 -41.65625 25.007812 -42.015625 24.59375 -42.015625 C 23.863281 -42.015625 22.566406 -41.03125 20.703125 -39.0625 C 18.835938 -37.09375 16.96875 -34.757812 15.09375 -32.0625 C 13.125 -29.050781 11.28125 -26.328125 9.5625 -23.890625 C 7.851562 -21.453125 6.535156 -19.765625 5.609375 -18.828125 C 5.085938 -18.304688 4.671875 -18.046875 4.359375 -18.046875 C 4.046875 -18.046875 3.8125 -18.359375 3.65625 -18.984375 C 3.5 -19.609375 3.421875 -20.234375 3.421875 -20.859375 C 3.421875 -21.171875 3.5 -21.476562 3.65625 -21.78125 C 3.8125 -22.09375 4.046875 -22.457031 4.359375 -22.875 L 9.65625 -30.96875 C 13.070312 -36.46875 16.648438 -41.757812 20.390625 -46.84375 C 21.222656 -47.988281 22.519531 -48.5625 24.28125 -48.5625 C 25.21875 -48.5625 26.460938 -48.171875 28.015625 -47.390625 C 29.566406 -46.609375 30.9375 -45.414062 32.125 -43.8125 C 33.320312 -42.207031 33.921875 -40.210938 33.921875 -37.828125 C 33.921875 -36.472656 33.765625 -35.039062 33.453125 -33.53125 C 33.148438 -32.03125 32.738281 -30.347656 32.21875 -28.484375 C 34.707031 -32.210938 37.894531 -36.203125 41.78125 -40.453125 C 45.675781 -44.710938 49.59375 -48.320312 53.53125 -51.28125 C 57.476562 -54.238281 60.75 -55.71875 63.34375 -55.71875 C 64.800781 -55.71875 66.226562 -55.378906 67.625 -54.703125 C 69.03125 -54.035156 70.222656 -52.945312 71.203125 -51.4375 C 72.191406 -49.9375 72.6875 -47.992188 72.6875 -45.609375 C 72.6875 -42.078125 70.816406 -36.703125 67.078125 -29.484375 C 63.347656 -22.273438 58.421875 -15.84375 52.296875 -10.1875 C 46.171875 -4.539062 39.476562 -1.71875 32.21875 -1.71875 C 29.207031 -1.71875 25.988281 -2.441406 22.5625 -3.890625 C 18.207031 5.441406 13.382812 14.570312 8.09375 23.5 C 2.800781 32.425781 -2.410156 39.789062 -7.546875 45.59375 C -12.679688 51.40625 -17.015625 54.3125 -20.546875 54.3125 Z M 29.265625 -6.6875 C 36.835938 -6.6875 45.1875 -12.863281 54.3125 -25.21875 C 57.425781 -29.46875 60.175781 -33.71875 62.5625 -37.96875 C 64.945312 -42.226562 66.140625 -45.445312 66.140625 -47.625 C 66.140625 -48.457031 65.984375 -49.078125 65.671875 -49.484375 C 65.367188 -49.898438 64.957031 -50.109375 64.4375 -50.109375 C 61.632812 -50.109375 57.945312 -48.210938 53.375 -44.421875 C 48.8125 -40.640625 44.300781 -36.257812 39.84375 -31.28125 C 35.382812 -26.300781 31.546875 -21.738281 28.328125 -17.59375 C 27.179688 -14.6875 25.78125 -11.363281 24.125 -7.625 C 25.570312 -7 27.285156 -6.6875 29.265625 -6.6875 Z M -24.28125 46.6875 C -18.15625 46.6875 -8.503906 35.429688 4.671875 12.921875 C 8.097656 6.898438 11.003906 1.453125 13.390625 -3.421875 C 8.203125 1.140625 2.316406 6.738281 -4.265625 13.375 C -10.859375 20.019531 -16.539062 26.222656 -21.3125 31.984375 C -26.09375 37.742188 -28.484375 41.710938 -28.484375 43.890625 C -28.484375 45.035156 -28.117188 45.785156 -27.390625 46.140625 C -26.660156 46.503906 -25.625 46.6875 -24.28125 46.6875 Z M -24.28125 46.6875 "/></g></g></g><g fill="#007bff" fill-opacity="1"><g transform="translate(912.110575, 435.449698)"><g><path d="M 15.09375 2.328125 C 10.945312 2.328125 7.9375 1.160156 6.0625 -1.171875 C 4.195312 -3.503906 3.265625 -6.585938 3.265625 -10.421875 C 3.265625 -14.679688 4.171875 -19.429688 5.984375 -24.671875 C 7.804688 -29.910156 11.050781 -36.578125 15.71875 -44.671875 C 22.363281 -56.285156 29.1875 -67.019531 36.1875 -76.875 C 43.1875 -86.738281 49.617188 -94.628906 55.484375 -100.546875 C 61.347656 -106.460938 65.941406 -109.421875 69.265625 -109.421875 C 70.398438 -109.421875 72.238281 -108.847656 74.78125 -107.703125 C 77.320312 -106.554688 79.578125 -105.15625 81.546875 -103.5 C 83.523438 -101.84375 84.515625 -100.335938 84.515625 -98.984375 C 84.515625 -97.953125 83.707031 -96.265625 82.09375 -93.921875 C 80.488281 -91.585938 78.285156 -88.867188 75.484375 -85.765625 C 70.085938 -79.640625 62.070312 -71.828125 51.4375 -62.328125 C 40.800781 -52.835938 30.867188 -44.71875 21.640625 -37.96875 C 15.410156 -26.5625 12.296875 -17.328125 12.296875 -10.265625 C 12.296875 -5.703125 13.851562 -3.421875 16.96875 -3.421875 C 21.425781 -3.421875 26.144531 -5.335938 31.125 -9.171875 C 36.101562 -13.015625 42.019531 -19.554688 48.875 -28.796875 C 49.289062 -29.316406 49.648438 -29.578125 49.953125 -29.578125 C 50.367188 -29.578125 50.679688 -29.367188 50.890625 -28.953125 C 51.097656 -28.535156 51.203125 -28.015625 51.203125 -27.390625 C 51.203125 -27.078125 50.941406 -26.457031 50.421875 -25.53125 C 47.617188 -20.539062 44.269531 -15.921875 40.375 -11.671875 C 36.488281 -7.421875 32.34375 -4.023438 27.9375 -1.484375 C 23.53125 1.054688 19.25 2.328125 15.09375 2.328125 Z M 26.609375 -46.375 C 38.960938 -57.269531 50.378906 -67.90625 60.859375 -78.28125 C 71.335938 -88.65625 76.578125 -95.296875 76.578125 -98.203125 C 76.578125 -99.242188 76.210938 -100.023438 75.484375 -100.546875 C 74.753906 -101.066406 73.875 -101.328125 72.84375 -101.328125 C 68.894531 -101.328125 63.316406 -97.046875 56.109375 -88.484375 C 48.898438 -79.921875 41.039062 -69.101562 32.53125 -56.03125 Z M 26.609375 -46.375 "/></g></g></g><g fill="#007bff" fill-opacity="1"><g transform="translate(952.262919, 435.449698)"><g><path d="M 38.4375 2.015625 C 36.570312 2.015625 35.066406 1.265625 33.921875 -0.234375 C 32.785156 -1.734375 32.21875 -3.882812 32.21875 -6.6875 C 32.21875 -10.425781 32.96875 -14.472656 34.46875 -18.828125 C 35.976562 -23.191406 37.71875 -27.238281 39.6875 -30.96875 C 38.238281 -29.414062 35.800781 -26.203125 32.375 -21.328125 C 27.707031 -14.472656 23.609375 -9.070312 20.078125 -5.125 C 16.546875 -1.1875 13.273438 0.78125 10.265625 0.78125 C 7.984375 0.78125 5.910156 0.00390625 4.046875 -1.546875 C 2.179688 -3.109375 1.25 -5.601562 1.25 -9.03125 C 1.25 -12.25 2.15625 -16.0625 3.96875 -20.46875 C 5.78125 -24.875 8.453125 -29.773438 11.984375 -35.171875 C 14.472656 -39.015625 17.554688 -42.515625 21.234375 -45.671875 C 24.921875 -48.835938 28.757812 -51.328125 32.75 -53.140625 C 36.75 -54.960938 40.515625 -55.875 44.046875 -55.875 C 45.285156 -55.875 46.96875 -55.613281 49.09375 -55.09375 C 51.226562 -54.570312 53.097656 -53.84375 54.703125 -52.90625 C 56.316406 -51.976562 57.125 -50.894531 57.125 -49.65625 C 57.125 -49.238281 57.019531 -48.898438 56.8125 -48.640625 C 56.601562 -48.378906 56.34375 -48.25 56.03125 -48.25 C 55.71875 -48.25 55.195312 -48.457031 54.46875 -48.875 C 51.976562 -50.320312 49.644531 -51.046875 47.46875 -51.046875 C 43.738281 -51.046875 39.640625 -49.644531 35.171875 -46.84375 C 30.710938 -44.039062 26.046875 -39.320312 21.171875 -32.6875 C 16.085938 -25.726562 12.632812 -20.300781 10.8125 -16.40625 C 9 -12.519531 8.09375 -9.539062 8.09375 -7.46875 C 8.09375 -5.914062 8.664062 -5.140625 9.8125 -5.140625 C 11.050781 -5.140625 12.707031 -5.96875 14.78125 -7.625 C 19.25 -11.257812 23.453125 -15.4375 27.390625 -20.15625 C 31.335938 -24.875 34.660156 -29.332031 37.359375 -33.53125 C 40.054688 -37.738281 41.972656 -41.140625 43.109375 -43.734375 C 43.210938 -44.148438 43.578125 -44.359375 44.203125 -44.359375 C 45.035156 -44.359375 45.96875 -43.992188 47 -43.265625 C 48.039062 -42.535156 48.945312 -41.625 49.71875 -40.53125 C 50.5 -39.445312 50.890625 -38.285156 50.890625 -37.046875 C 50.890625 -36.109375 50.679688 -35.273438 50.265625 -34.546875 C 47.773438 -30.191406 45.726562 -26.015625 44.125 -22.015625 C 42.519531 -18.023438 41.71875 -14.367188 41.71875 -11.046875 C 41.71875 -8.035156 42.648438 -6.53125 44.515625 -6.53125 C 46.066406 -6.53125 47.957031 -7.59375 50.1875 -9.71875 C 52.425781 -11.851562 55.515625 -15.460938 59.453125 -20.546875 C 62.359375 -24.171875 64.222656 -26.453125 65.046875 -27.390625 C 65.878906 -28.328125 66.554688 -28.796875 67.078125 -28.796875 C 67.492188 -28.796875 67.832031 -28.691406 68.09375 -28.484375 C 68.351562 -28.273438 68.484375 -28.015625 68.484375 -27.703125 C 68.484375 -27.285156 67.804688 -26.039062 66.453125 -23.96875 C 64.066406 -20.125 61.238281 -16.226562 57.96875 -12.28125 C 54.707031 -8.34375 51.335938 -4.972656 47.859375 -2.171875 C 44.378906 0.617188 41.238281 2.015625 38.4375 2.015625 Z M 38.4375 2.015625 "/></g></g></g><g fill="#007bff" fill-opacity="1"><g transform="translate(1009.690123, 435.449698)"><g><path d="M 11.515625 3.890625 C 8.816406 3.890625 6.6875 2.976562 5.125 1.15625 C 3.570312 -0.65625 2.796875 -3.476562 2.796875 -7.3125 C 2.796875 -11.675781 3.859375 -16.503906 5.984375 -21.796875 C 8.117188 -27.085938 11.675781 -33.984375 16.65625 -42.484375 L 20.546875 -49.03125 C 19.503906 -48.820312 18.175781 -48.457031 16.5625 -47.9375 C 14.957031 -47.414062 13.378906 -46.789062 11.828125 -46.0625 C 10.273438 -45.34375 9.34375 -44.984375 9.03125 -44.984375 C 8.195312 -44.984375 7.78125 -45.65625 7.78125 -47 C 7.78125 -48.25 8.09375 -49.546875 8.71875 -50.890625 C 9.34375 -52.242188 10.117188 -52.972656 11.046875 -53.078125 C 13.015625 -53.390625 14.957031 -53.644531 16.875 -53.84375 C 18.800781 -54.050781 21.113281 -54.257812 23.8125 -54.46875 C 27.238281 -60.800781 30.25 -65.9375 32.84375 -69.875 C 34.914062 -73.09375 36.675781 -75.425781 38.125 -76.875 C 39.582031 -78.332031 40.929688 -79.0625 42.171875 -79.0625 C 43.316406 -79.0625 44.484375 -78.773438 45.671875 -78.203125 C 46.867188 -77.640625 47.859375 -76.96875 48.640625 -76.1875 C 49.421875 -75.40625 49.8125 -74.703125 49.8125 -74.078125 C 49.8125 -73.972656 49.445312 -73.664062 48.71875 -73.15625 C 47.15625 -71.90625 45.128906 -69.878906 42.640625 -67.078125 C 40.148438 -64.273438 37.144531 -60.28125 33.625 -55.09375 C 36.425781 -55.300781 41.09375 -55.40625 47.625 -55.40625 C 48.039062 -55.40625 48.378906 -55.300781 48.640625 -55.09375 C 48.898438 -54.882812 49.03125 -54.625 49.03125 -54.3125 C 49.03125 -53.59375 48.195312 -53 46.53125 -52.53125 C 44.875 -52.0625 42.382812 -51.515625 39.0625 -50.890625 C 36.882812 -50.472656 34.757812 -49.976562 32.6875 -49.40625 C 30.613281 -48.84375 29.265625 -48.300781 28.640625 -47.78125 C 23.765625 -39.894531 19.742188 -32.394531 16.578125 -25.28125 C 13.410156 -18.175781 11.828125 -12.132812 11.828125 -7.15625 C 11.828125 -5.394531 12.113281 -4.148438 12.6875 -3.421875 C 13.257812 -2.691406 14.0625 -2.328125 15.09375 -2.328125 C 17.269531 -2.328125 20.203125 -3.625 23.890625 -6.21875 C 27.578125 -8.8125 30.613281 -11.359375 33 -13.859375 C 34.65625 -15.722656 36.519531 -18.003906 38.59375 -20.703125 C 40.78125 -23.503906 42.519531 -25.65625 43.8125 -27.15625 C 45.113281 -28.664062 46.019531 -29.421875 46.53125 -29.421875 C 46.945312 -29.421875 47.285156 -29.316406 47.546875 -29.109375 C 47.804688 -28.898438 47.9375 -28.640625 47.9375 -28.328125 C 47.9375 -28.015625 47.882812 -27.804688 47.78125 -27.703125 C 46.53125 -25.523438 44.816406 -22.929688 42.640625 -19.921875 C 40.460938 -16.910156 38.234375 -14.109375 35.953125 -11.515625 C 32.109375 -6.953125 28.113281 -3.242188 23.96875 -0.390625 C 19.820312 2.460938 15.671875 3.890625 11.515625 3.890625 Z M 11.515625 3.890625 "/></g></g></g><g fill="#007bff" fill-opacity="1"><g transform="translate(1045.484856, 435.449698)"><g><path d="M 19.765625 2.328125 C 15.304688 2.328125 11.597656 1.238281 8.640625 -0.9375 C 5.679688 -3.113281 4.203125 -6.898438 4.203125 -12.296875 C 4.203125 -17.378906 6.117188 -23.421875 9.953125 -30.421875 C 13.796875 -37.429688 18.625 -43.453125 24.4375 -48.484375 C 30.25 -53.515625 36.007812 -56.03125 41.71875 -56.03125 C 44.613281 -56.03125 46.757812 -55.273438 48.15625 -53.765625 C 49.5625 -52.265625 50.265625 -50.320312 50.265625 -47.9375 C 50.265625 -43.789062 48.265625 -39.585938 44.265625 -35.328125 C 40.273438 -31.078125 35.476562 -27.578125 29.875 -24.828125 C 24.28125 -22.078125 19.457031 -20.703125 15.40625 -20.703125 C 14.269531 -18.109375 13.703125 -15.671875 13.703125 -13.390625 C 13.703125 -10.273438 14.21875 -7.78125 15.25 -5.90625 C 16.289062 -4.039062 18.367188 -3.109375 21.484375 -3.109375 C 25.941406 -3.109375 30.140625 -4.300781 34.078125 -6.6875 C 38.023438 -9.070312 41.609375 -12.03125 44.828125 -15.5625 C 48.046875 -19.09375 51.519531 -23.503906 55.25 -28.796875 C 55.664062 -29.316406 56.082031 -29.578125 56.5 -29.578125 C 56.8125 -29.578125 57.070312 -29.367188 57.28125 -28.953125 C 57.488281 -28.535156 57.59375 -28.066406 57.59375 -27.546875 C 57.59375 -26.816406 57.332031 -25.957031 56.8125 -24.96875 C 56.289062 -23.988281 55.351562 -22.617188 54 -20.859375 C 50.164062 -15.566406 46.507812 -11.257812 43.03125 -7.9375 C 39.5625 -4.613281 35.929688 -2.070312 32.140625 -0.3125 C 28.347656 1.445312 24.222656 2.328125 19.765625 2.328125 Z M 16.8125 -23.8125 C 20.238281 -24.019531 24.179688 -25.578125 28.640625 -28.484375 C 33.097656 -31.390625 36.960938 -34.65625 40.234375 -38.28125 C 43.503906 -41.914062 45.140625 -44.820312 45.140625 -47 C 45.140625 -48.457031 44.515625 -49.1875 43.265625 -49.1875 C 41.085938 -49.1875 38.285156 -47.941406 34.859375 -45.453125 C 31.441406 -42.960938 28.070312 -39.742188 24.75 -35.796875 C 21.425781 -31.859375 18.78125 -27.863281 16.8125 -23.8125 Z M 16.8125 -23.8125 "/></g></g></g></svg>