<svg xmlns="http://www.w3.org/2000/svg" xmlns:xlink="http://www.w3.org/1999/xlink" width="290" zoomAndPan="magnify" viewBox="0 0 217.5 44.999999" height="60" preserveAspectRatio="xMidYMid meet" version="1.0"><defs><clipPath id="c911c049a1"><path d="M 0 0.0507812 L 217 0.0507812 L 217 44.949219 L 0 44.949219 Z M 0 0.0507812 " clip-rule="nonzero"/></clipPath></defs><g clip-path="url(#c911c049a1)"><rect x="-21.75" width="261" fill="#ffffff" y="-4.5" height="53.999999" fill-opacity="1"/></g><path fill="#ff6600" d="M 8.195312 33.507812 L 9.675781 33.507812 C 9.789062 33.507812 9.898438 33.433594 10.011719 33.210938 L 13.714844 26.175781 C 13.828125 25.914062 13.90625 25.804688 14.199219 25.804688 L 29.917969 24.945312 C 30.214844 24.945312 30.363281 24.984375 30.472656 25.207031 L 35.253906 33.210938 C 35.367188 33.394531 35.476562 33.507812 35.664062 33.507812 L 41.335938 33.507812 C 41.632812 33.507812 41.746094 33.394531 41.554688 33.023438 L 25.953125 7.304688 C 25.875 7.152344 25.800781 7.042969 25.542969 7.042969 L 19.980469 7.042969 C 18.6875 7.042969 18.832031 7.113281 19.835938 7.824219 C 20.242188 8.121094 20.613281 8.605469 20.613281 9.015625 C 20.613281 9.125 20.574219 9.3125 20.429688 9.609375 L 7.933594 33.101562 C 7.75 33.433594 7.859375 33.507812 8.195312 33.507812 Z M 14.832031 24.015625 L 20.390625 13.742188 C 20.796875 13.035156 21.242188 12.066406 21.539062 11.398438 C 21.835938 10.691406 21.910156 10.839844 22.207031 11.359375 C 22.539062 12.027344 23.097656 13.148438 23.46875 13.742188 L 28.953125 22.640625 C 29.101562 22.972656 29.101562 23.125 28.691406 23.160156 L 15.199219 24.5 C 14.609375 24.574219 14.644531 24.386719 14.832031 24.015625 Z M 14.832031 24.015625 " fill-opacity="1" fill-rule="nonzero"/><path fill="#ff6600" d="M 51.53125 8.457031 C 53.71875 8.53125 54.976562 10.355469 54.902344 12.703125 C 54.867188 13.21875 54.828125 13.632812 54.71875 14.003906 C 54.53125 14.523438 54.789062 14.449219 55.085938 14.1875 C 56.609375 12.847656 57.460938 10.46875 56.347656 8.863281 C 55.382812 7.304688 53.457031 6.746094 51.566406 6.667969 C 47.078125 6.519531 44.152344 9.5 44.003906 13.21875 C 43.929688 15.789062 44.746094 17.765625 45.710938 19.625 L 47.933594 24.128906 C 49.121094 26.4375 49.75 28.035156 49.675781 29.5625 C 49.640625 31.164062 48.265625 32.132812 47.078125 32.09375 C 44.1875 31.980469 42.890625 29.714844 43.226562 26.773438 C 43.261719 26.324219 43.039062 26.398438 42.855469 26.550781 C 41.59375 27.589844 40.777344 29.414062 41.371094 30.828125 C 42.222656 33.136719 44.484375 33.808594 47.078125 33.878906 C 51.566406 34.066406 54.125 30.605469 54.269531 26.996094 C 54.347656 25.023438 53.976562 23.308594 52.753906 20.964844 L 50.492188 16.535156 C 49.191406 14.003906 48.488281 12.703125 48.5625 11.097656 C 48.601562 9.347656 50.046875 8.417969 51.53125 8.457031 Z M 51.53125 8.457031 " fill-opacity="1" fill-rule="nonzero"/><path fill="#ff6600" d="M 56.679688 33.507812 L 58.164062 33.507812 C 58.277344 33.507812 58.386719 33.433594 58.5 33.210938 L 62.203125 26.175781 C 62.316406 25.914062 62.390625 25.804688 62.6875 25.804688 L 78.402344 24.945312 C 78.699219 24.945312 78.851562 24.984375 78.960938 25.207031 L 83.742188 33.210938 C 83.855469 33.394531 83.964844 33.507812 84.152344 33.507812 L 89.820312 33.507812 C 90.117188 33.507812 90.230469 33.394531 90.042969 33.023438 L 74.4375 7.304688 C 74.363281 7.152344 74.289062 7.042969 74.027344 7.042969 L 68.46875 7.042969 C 67.171875 7.042969 67.320312 7.113281 68.320312 7.824219 C 68.726562 8.121094 69.101562 8.605469 69.101562 9.015625 C 69.101562 9.125 69.0625 9.3125 68.917969 9.609375 L 56.421875 33.101562 C 56.238281 33.433594 56.347656 33.507812 56.679688 33.507812 Z M 63.316406 24.015625 L 68.878906 13.742188 C 69.285156 13.035156 69.730469 12.066406 70.027344 11.398438 C 70.324219 10.691406 70.394531 10.839844 70.691406 11.359375 C 71.027344 12.027344 71.585938 13.148438 71.953125 13.742188 L 77.441406 22.640625 C 77.589844 22.972656 77.589844 23.125 77.179688 23.160156 L 63.6875 24.5 C 63.097656 24.574219 63.128906 24.386719 63.316406 24.015625 Z M 63.316406 24.015625 " fill-opacity="1" fill-rule="nonzero"/><path fill="#ff6600" d="M 100.203125 20.222656 C 104.277344 20.890625 108.875 17.800781 108.875 12.996094 C 108.914062 11.0625 107.652344 8.15625 103.6875 7.304688 C 102.648438 7.082031 101.425781 7.003906 99.941406 7.042969 C 96.828125 7.152344 93.753906 7.152344 90.636719 7.042969 C 90.378906 7.042969 90.378906 7.152344 90.5625 7.304688 C 91.414062 7.859375 92.007812 8.71875 92.007812 9.648438 L 92.007812 33.210938 C 92.007812 33.394531 92.117188 33.507812 92.308594 33.507812 L 97.199219 33.507812 C 97.386719 33.507812 97.496094 33.394531 97.496094 33.210938 L 97.496094 9.125 C 97.496094 8.941406 97.609375 8.828125 97.792969 8.792969 C 98.3125 8.792969 98.976562 8.753906 99.3125 8.753906 C 101.945312 8.753906 103.019531 10.988281 103.019531 12.960938 C 103.019531 16.945312 101.386719 18.730469 98.496094 19.324219 C 97.867188 19.476562 97.753906 19.515625 98.421875 19.769531 C 98.941406 19.996094 99.574219 20.144531 100.203125 20.222656 Z M 100.203125 20.222656 " fill-opacity="1" fill-rule="nonzero"/><path fill="#007bff" d="M 112.648438 31.671875 C 112.0625 31.671875 111.597656 31.472656 111.257812 31.074219 C 110.917969 30.679688 110.75 30.0625 110.75 29.21875 C 110.75 28.265625 110.980469 27.207031 111.445312 26.046875 C 111.910156 24.886719 112.683594 23.375 113.769531 21.511719 L 114.621094 20.078125 C 114.394531 20.125 114.105469 20.203125 113.753906 20.316406 C 113.402344 20.429688 113.058594 20.566406 112.71875 20.722656 C 112.378906 20.886719 112.175781 20.964844 112.105469 20.964844 C 111.925781 20.964844 111.835938 20.816406 111.835938 20.523438 C 111.835938 20.246094 111.902344 19.960938 112.039062 19.667969 C 112.175781 19.371094 112.347656 19.214844 112.550781 19.191406 C 112.980469 19.121094 113.402344 19.066406 113.824219 19.023438 C 114.242188 18.976562 114.746094 18.929688 115.335938 18.886719 C 116.082031 17.496094 116.738281 16.371094 117.304688 15.507812 C 117.757812 14.804688 118.144531 14.292969 118.460938 13.972656 C 118.777344 13.652344 119.070312 13.492188 119.34375 13.492188 C 119.59375 13.492188 119.847656 13.558594 120.105469 13.683594 C 120.367188 13.808594 120.582031 13.957031 120.75 14.128906 C 120.921875 14.296875 121.007812 14.453125 121.007812 14.589844 C 121.007812 14.609375 120.925781 14.675781 120.769531 14.789062 C 120.429688 15.0625 119.988281 15.507812 119.445312 16.121094 C 118.902344 16.734375 118.246094 17.609375 117.476562 18.746094 C 118.085938 18.703125 119.105469 18.679688 120.53125 18.679688 C 120.621094 18.679688 120.695312 18.703125 120.75 18.746094 C 120.804688 18.792969 120.835938 18.851562 120.835938 18.917969 C 120.835938 19.078125 120.652344 19.207031 120.292969 19.3125 C 119.929688 19.414062 119.386719 19.53125 118.660156 19.667969 C 118.1875 19.757812 117.722656 19.867188 117.269531 19.992188 C 116.816406 20.117188 116.523438 20.238281 116.390625 20.351562 C 115.324219 22.078125 114.445312 23.71875 113.753906 25.277344 C 113.0625 26.835938 112.71875 28.160156 112.71875 29.253906 C 112.71875 29.640625 112.78125 29.914062 112.90625 30.074219 C 113.03125 30.230469 113.207031 30.308594 113.433594 30.308594 C 113.910156 30.308594 114.546875 30.027344 115.351562 29.457031 C 116.152344 28.890625 116.816406 28.332031 117.339844 27.789062 C 117.703125 27.378906 118.109375 26.878906 118.5625 26.285156 C 119.035156 25.671875 119.414062 25.199219 119.699219 24.871094 C 119.980469 24.539062 120.179688 24.375 120.292969 24.375 C 120.382812 24.375 120.457031 24.398438 120.515625 24.445312 C 120.570312 24.488281 120.597656 24.542969 120.597656 24.613281 C 120.597656 24.679688 120.585938 24.726562 120.566406 24.75 C 120.292969 25.230469 119.921875 25.796875 119.445312 26.457031 C 118.96875 27.113281 118.480469 27.730469 117.984375 28.296875 C 117.144531 29.300781 116.273438 30.109375 115.367188 30.734375 C 114.460938 31.359375 113.558594 31.671875 112.648438 31.671875 Z M 112.648438 31.671875 " fill-opacity="1" fill-rule="nonzero"/><path fill="#007bff" d="M 122.261719 31.332031 C 121.289062 31.332031 120.480469 31.09375 119.832031 30.617188 C 119.1875 30.140625 118.863281 29.308594 118.863281 28.128906 C 118.863281 27.011719 119.285156 25.6875 120.121094 24.152344 C 120.960938 22.617188 122.011719 21.300781 123.28125 20.195312 C 124.550781 19.09375 125.804688 18.542969 127.050781 18.542969 C 127.6875 18.542969 128.15625 18.707031 128.460938 19.039062 C 128.765625 19.367188 128.917969 19.792969 128.917969 20.316406 C 128.917969 21.226562 128.484375 22.148438 127.609375 23.082031 C 126.738281 24.015625 125.695312 24.78125 124.46875 25.382812 C 123.246094 25.984375 122.195312 26.285156 121.3125 26.285156 C 121.0625 26.855469 120.941406 27.386719 120.941406 27.886719 C 120.941406 28.570312 121.050781 29.113281 121.277344 29.523438 C 121.503906 29.933594 121.957031 30.136719 122.632812 30.136719 C 123.609375 30.136719 124.527344 29.878906 125.386719 29.355469 C 126.246094 28.832031 127.027344 28.183594 127.730469 27.410156 C 128.433594 26.636719 129.191406 25.667969 130.007812 24.511719 C 130.097656 24.398438 130.1875 24.339844 130.277344 24.339844 C 130.34375 24.339844 130.402344 24.386719 130.449219 24.480469 C 130.492188 24.566406 130.515625 24.671875 130.515625 24.785156 C 130.515625 24.945312 130.457031 25.132812 130.34375 25.347656 C 130.234375 25.5625 130.027344 25.863281 129.734375 26.25 C 128.898438 27.410156 128.097656 28.351562 127.339844 29.082031 C 126.582031 29.808594 125.789062 30.367188 124.960938 30.753906 C 124.136719 31.136719 123.234375 31.332031 122.261719 31.332031 Z M 121.617188 25.601562 C 122.363281 25.558594 123.222656 25.21875 124.195312 24.582031 C 125.171875 23.945312 126.015625 23.226562 126.730469 22.429688 C 127.441406 21.632812 127.796875 21 127.796875 20.523438 C 127.796875 20.203125 127.664062 20.046875 127.390625 20.046875 C 126.914062 20.046875 126.304688 20.320312 125.558594 20.867188 C 124.808594 21.410156 124.074219 22.113281 123.347656 22.980469 C 122.625 23.84375 122.046875 24.714844 121.617188 25.601562 Z M 121.617188 25.601562 " fill-opacity="1" fill-rule="nonzero"/><path fill="#007bff" d="M 131.667969 31.09375 C 131.351562 31.09375 131.058594 31.042969 130.785156 30.941406 C 130.515625 30.839844 130.378906 30.71875 130.378906 30.582031 C 130.378906 30.539062 130.390625 30.503906 130.414062 30.480469 L 131.058594 29.355469 C 132.101562 27.605469 132.953125 26.066406 133.621094 24.75 C 134.289062 23.433594 134.828125 22.078125 135.234375 20.691406 C 135.28125 20.554688 135.304688 20.398438 135.304688 20.214844 C 135.304688 20.078125 135.269531 19.984375 135.203125 19.925781 C 135.132812 19.867188 135.019531 19.839844 134.863281 19.839844 C 134.566406 19.839844 134.191406 20.097656 133.738281 20.609375 C 133.289062 21.117188 132.652344 21.976562 131.839844 23.183594 C 131.136719 24.203125 130.332031 25.34375 129.429688 26.59375 C 129.246094 26.84375 129.121094 26.96875 129.054688 26.96875 C 128.984375 26.96875 128.933594 26.910156 128.898438 26.800781 C 128.867188 26.683594 128.851562 26.558594 128.851562 26.421875 C 128.851562 26.21875 128.875 26.082031 128.921875 26.011719 C 130.074219 24.351562 130.785156 23.296875 131.058594 22.84375 L 133.605469 18.714844 C 133.675781 18.597656 133.839844 18.507812 134.097656 18.441406 C 134.359375 18.375 134.601562 18.339844 134.828125 18.339844 C 135.191406 18.339844 135.574219 18.425781 135.984375 18.597656 C 136.390625 18.765625 136.730469 19 137.003906 19.292969 C 137.273438 19.589844 137.410156 19.90625 137.410156 20.246094 C 137.410156 20.632812 137.3125 21.054688 137.121094 21.511719 C 136.929688 21.964844 136.652344 22.535156 136.289062 23.214844 C 135.972656 23.804688 135.757812 24.226562 135.644531 24.480469 C 136.660156 23.160156 137.703125 22.023438 138.765625 21.066406 C 139.832031 20.113281 140.816406 19.632812 141.722656 19.632812 C 142.3125 19.632812 142.730469 19.84375 142.980469 20.265625 C 143.226562 20.6875 143.351562 21.226562 143.351562 21.882812 C 143.351562 22.339844 143.308594 22.800781 143.214844 23.265625 C 143.128906 23.734375 143.015625 24.125 142.878906 24.445312 L 142.539062 25.261719 C 143.445312 24.238281 144.117188 23.492188 144.558594 23.027344 C 145 22.5625 145.335938 22.226562 145.5625 22.023438 C 145.921875 21.679688 146.359375 21.351562 146.867188 21.035156 C 147.375 20.714844 147.859375 20.554688 148.3125 20.554688 C 148.742188 20.554688 149.082031 20.699219 149.332031 20.980469 C 149.582031 21.265625 149.707031 21.691406 149.707031 22.261719 C 149.707031 22.535156 149.648438 23.046875 149.535156 23.796875 C 149.511719 23.953125 149.449219 24.453125 149.347656 25.296875 C 149.246094 26.136719 149.195312 26.878906 149.195312 27.511719 C 149.195312 28.082031 149.246094 28.523438 149.347656 28.84375 C 149.449219 29.164062 149.601562 29.320312 149.804688 29.320312 C 150.101562 29.320312 150.554688 28.996094 151.164062 28.351562 C 151.777344 27.699219 152.546875 26.796875 153.476562 25.636719 C 154.0625 24.886719 154.425781 24.511719 154.5625 24.511719 C 154.632812 24.511719 154.699219 24.53125 154.765625 24.578125 C 154.832031 24.625 154.867188 24.695312 154.867188 24.785156 C 154.867188 24.945312 154.550781 25.464844 153.917969 26.339844 C 153.28125 27.214844 152.738281 27.910156 152.285156 28.433594 C 151.652344 29.160156 151.046875 29.757812 150.46875 30.222656 C 149.890625 30.691406 149.355469 30.925781 148.855469 30.925781 C 148.246094 30.925781 147.820312 30.625 147.582031 30.019531 C 147.34375 29.417969 147.226562 28.605469 147.226562 27.582031 C 147.226562 26.878906 147.257812 26.183594 147.328125 25.5 C 147.371094 24.636719 147.394531 24.035156 147.394531 23.691406 C 147.394531 23.167969 147.355469 22.800781 147.277344 22.585938 C 147.195312 22.371094 147.066406 22.261719 146.886719 22.261719 C 146.523438 22.261719 146.082031 22.492188 145.5625 22.945312 C 145.042969 23.398438 144.371094 24.136719 143.558594 25.160156 C 143.21875 25.589844 142.878906 26.0625 142.539062 26.574219 C 142.199219 27.085938 141.882812 27.582031 141.585938 28.058594 C 141.179688 28.742188 140.929688 29.148438 140.839844 29.285156 C 140.566406 29.605469 140.289062 29.84375 140.007812 30.003906 C 139.722656 30.160156 139.480469 30.242188 139.277344 30.242188 C 139.074219 30.242188 138.910156 30.175781 138.785156 30.039062 C 138.660156 29.902344 138.597656 29.707031 138.597656 29.457031 C 138.597656 29.273438 138.65625 29.015625 138.769531 28.671875 C 138.902344 28.332031 139.054688 27.972656 139.222656 27.597656 C 139.394531 27.222656 139.550781 26.867188 139.6875 26.523438 C 140.25 25.296875 140.703125 24.269531 141.042969 23.4375 C 141.382812 22.609375 141.550781 21.988281 141.550781 21.578125 C 141.550781 21.308594 141.496094 21.074219 141.382812 20.882812 C 141.269531 20.6875 141.101562 20.589844 140.875 20.589844 C 140.625 20.589844 140.238281 20.765625 139.714844 21.121094 C 139.195312 21.472656 138.734375 21.875 138.324219 22.328125 C 137.738281 22.941406 137.035156 23.785156 136.21875 24.851562 C 135.472656 25.851562 134.757812 26.898438 134.082031 27.988281 C 133.402344 29.082031 132.859375 30.023438 132.449219 30.820312 C 132.359375 31.003906 132.097656 31.09375 131.667969 31.09375 Z M 131.667969 31.09375 " fill-opacity="1" fill-rule="nonzero"/><path fill="#007bff" d="M 147.933594 42.722656 C 147.621094 42.722656 147.191406 42.621094 146.648438 42.414062 C 146.101562 42.210938 145.621094 41.960938 145.203125 41.664062 C 144.78125 41.371094 144.574219 41.085938 144.574219 40.8125 C 144.574219 40.179688 145.308594 39.007812 146.78125 37.300781 C 148.253906 35.59375 149.921875 33.882812 151.789062 32.167969 C 153.660156 30.449219 155.023438 29.332031 155.886719 28.808594 C 156.292969 27.875 156.734375 26.609375 157.207031 25.007812 C 157.683594 23.402344 157.921875 22.351562 157.921875 21.851562 C 157.921875 21.691406 157.875 21.613281 157.785156 21.613281 C 157.628906 21.613281 157.34375 21.828125 156.9375 22.261719 C 156.527344 22.691406 156.121094 23.203125 155.714844 23.796875 C 155.285156 24.453125 154.882812 25.050781 154.507812 25.585938 C 154.132812 26.121094 153.84375 26.488281 153.644531 26.695312 C 153.527344 26.808594 153.4375 26.863281 153.371094 26.863281 C 153.300781 26.863281 153.25 26.796875 153.214844 26.660156 C 153.183594 26.523438 153.167969 26.386719 153.167969 26.25 C 153.167969 26.179688 153.183594 26.113281 153.214844 26.046875 C 153.25 25.980469 153.300781 25.898438 153.371094 25.808594 L 154.523438 24.03125 C 155.269531 22.828125 156.054688 21.671875 156.871094 20.554688 C 157.046875 20.304688 157.332031 20.179688 157.714844 20.179688 C 157.921875 20.179688 158.195312 20.265625 158.535156 20.4375 C 158.871094 20.605469 159.171875 20.867188 159.433594 21.21875 C 159.691406 21.570312 159.820312 22.011719 159.820312 22.53125 C 159.820312 22.828125 159.789062 23.140625 159.71875 23.46875 C 159.652344 23.800781 159.5625 24.167969 159.449219 24.578125 C 159.992188 23.761719 160.691406 22.886719 161.539062 21.957031 C 162.386719 21.023438 163.242188 20.234375 164.101562 19.585938 C 164.960938 18.9375 165.675781 18.609375 166.242188 18.609375 C 166.558594 18.609375 166.871094 18.683594 167.175781 18.832031 C 167.480469 18.980469 167.742188 19.21875 167.957031 19.550781 C 168.171875 19.878906 168.28125 20.304688 168.28125 20.828125 C 168.28125 21.601562 167.871094 22.777344 167.058594 24.359375 C 166.242188 25.9375 165.167969 27.347656 163.832031 28.585938 C 162.496094 29.828125 161.035156 30.445312 159.449219 30.445312 C 158.792969 30.445312 158.089844 30.289062 157.34375 29.96875 C 156.394531 32.015625 155.339844 34.015625 154.1875 35.96875 C 153.03125 37.925781 151.894531 39.539062 150.773438 40.8125 C 149.652344 42.085938 148.707031 42.722656 147.933594 42.722656 Z M 158.804688 29.355469 C 160.457031 29.355469 162.28125 28.003906 164.273438 25.296875 C 164.953125 24.363281 165.554688 23.433594 166.074219 22.503906 C 166.59375 21.570312 166.855469 20.863281 166.855469 20.386719 C 166.855469 20.203125 166.820312 20.066406 166.753906 19.976562 C 166.683594 19.886719 166.59375 19.839844 166.480469 19.839844 C 165.867188 19.839844 165.066406 20.253906 164.066406 21.085938 C 163.070312 21.914062 162.085938 22.871094 161.113281 23.964844 C 160.140625 25.054688 159.304688 26.058594 158.601562 26.96875 C 158.351562 27.605469 158.042969 28.332031 157.683594 29.148438 C 158 29.285156 158.375 29.355469 158.804688 29.355469 Z M 147.121094 41.050781 C 148.457031 41.050781 150.5625 38.585938 153.4375 33.652344 C 154.183594 32.332031 154.820312 31.136719 155.339844 30.070312 C 154.207031 31.070312 152.921875 32.300781 151.488281 33.753906 C 150.050781 35.210938 148.808594 36.566406 147.769531 37.828125 C 146.726562 39.089844 146.203125 39.960938 146.203125 40.441406 C 146.203125 40.6875 146.28125 40.851562 146.441406 40.929688 C 146.597656 41.011719 146.828125 41.050781 147.121094 41.050781 Z M 147.121094 41.050781 " fill-opacity="1" fill-rule="nonzero"/><path fill="#007bff" d="M 170.894531 31.332031 C 169.988281 31.332031 169.332031 31.078125 168.921875 30.566406 C 168.515625 30.054688 168.3125 29.378906 168.3125 28.535156 C 168.3125 27.605469 168.511719 26.566406 168.910156 25.414062 C 169.304688 24.269531 170.011719 22.808594 171.03125 21.035156 C 172.480469 18.488281 173.96875 16.132812 175.496094 13.972656 C 177.023438 11.816406 178.425781 10.085938 179.707031 8.792969 C 180.984375 7.496094 181.988281 6.847656 182.710938 6.847656 C 182.964844 6.847656 183.367188 6.972656 183.917969 7.21875 C 184.472656 7.46875 184.964844 7.777344 185.394531 8.140625 C 185.824219 8.503906 186.042969 8.832031 186.042969 9.128906 C 186.042969 9.359375 185.867188 9.726562 185.515625 10.242188 C 185.164062 10.75 184.683594 11.347656 184.074219 12.027344 C 182.894531 13.371094 181.144531 15.082031 178.824219 17.164062 C 176.503906 19.242188 174.335938 21.019531 172.320312 22.5 C 170.960938 25 170.28125 27.023438 170.28125 28.570312 C 170.28125 29.570312 170.621094 30.070312 171.300781 30.070312 C 172.277344 30.070312 173.308594 29.648438 174.394531 28.808594 C 175.480469 27.96875 176.769531 26.535156 178.265625 24.511719 C 178.355469 24.398438 178.433594 24.339844 178.503906 24.339844 C 178.59375 24.339844 178.660156 24.386719 178.707031 24.480469 C 178.753906 24.566406 178.777344 24.679688 178.777344 24.820312 C 178.777344 24.886719 178.71875 25.023438 178.605469 25.226562 C 177.992188 26.320312 177.261719 27.332031 176.414062 28.265625 C 175.5625 29.195312 174.65625 29.941406 173.695312 30.5 C 172.734375 31.054688 171.800781 31.332031 170.894531 31.332031 Z M 173.40625 20.65625 C 176.101562 18.269531 178.59375 15.941406 180.878906 13.664062 C 183.164062 11.390625 184.308594 9.9375 184.308594 9.300781 C 184.308594 9.074219 184.226562 8.902344 184.070312 8.789062 C 183.914062 8.675781 183.722656 8.617188 183.496094 8.617188 C 182.632812 8.617188 181.414062 9.554688 179.84375 11.429688 C 178.269531 13.308594 176.554688 15.679688 174.699219 18.542969 Z M 173.40625 20.65625 " fill-opacity="1" fill-rule="nonzero"/><path fill="#007bff" d="M 184.753906 31.261719 C 184.34375 31.261719 184.015625 31.097656 183.765625 30.769531 C 183.515625 30.441406 183.390625 29.96875 183.390625 29.355469 C 183.390625 28.535156 183.554688 27.648438 183.882812 26.695312 C 184.210938 25.738281 184.589844 24.851562 185.023438 24.03125 C 184.703125 24.375 184.171875 25.078125 183.425781 26.148438 C 182.40625 27.648438 181.511719 28.832031 180.742188 29.695312 C 179.972656 30.558594 179.261719 30.992188 178.605469 30.992188 C 178.105469 30.992188 177.652344 30.820312 177.242188 30.480469 C 176.835938 30.140625 176.636719 29.59375 176.636719 28.84375 C 176.636719 28.140625 176.832031 27.304688 177.226562 26.339844 C 177.621094 25.371094 178.207031 24.296875 178.976562 23.113281 C 179.519531 22.269531 180.195312 21.503906 180.996094 20.808594 C 181.800781 20.117188 182.636719 19.570312 183.511719 19.171875 C 184.382812 18.773438 185.203125 18.578125 185.972656 18.578125 C 186.246094 18.578125 186.613281 18.632812 187.074219 18.746094 C 187.539062 18.863281 187.949219 19.023438 188.300781 19.226562 C 188.648438 19.433594 188.824219 19.671875 188.824219 19.941406 C 188.824219 20.035156 188.804688 20.109375 188.757812 20.164062 C 188.710938 20.21875 188.65625 20.246094 188.589844 20.246094 C 188.523438 20.246094 188.40625 20.203125 188.25 20.109375 C 187.707031 19.792969 187.195312 19.632812 186.71875 19.632812 C 185.90625 19.632812 185.011719 19.941406 184.039062 20.554688 C 183.066406 21.167969 182.046875 22.203125 180.984375 23.660156 C 179.871094 25.183594 179.121094 26.371094 178.722656 27.222656 C 178.328125 28.074219 178.128906 28.730469 178.128906 29.183594 C 178.128906 29.527344 178.253906 29.695312 178.5 29.695312 C 178.773438 29.695312 179.132812 29.511719 179.589844 29.148438 C 180.558594 28.351562 181.476562 27.4375 182.339844 26.402344 C 183.199219 25.371094 183.925781 24.394531 184.511719 23.472656 C 185.101562 22.550781 185.523438 21.804688 185.769531 21.234375 C 185.792969 21.148438 185.871094 21.101562 186.007812 21.101562 C 186.1875 21.101562 186.390625 21.183594 186.617188 21.34375 C 186.84375 21.5 187.042969 21.699219 187.210938 21.9375 C 187.382812 22.175781 187.46875 22.429688 187.46875 22.703125 C 187.46875 22.910156 187.421875 23.089844 187.332031 23.25 C 186.789062 24.203125 186.339844 25.121094 185.988281 25.996094 C 185.636719 26.871094 185.464844 27.671875 185.464844 28.398438 C 185.464844 29.058594 185.667969 29.390625 186.074219 29.390625 C 186.414062 29.390625 186.828125 29.15625 187.316406 28.691406 C 187.800781 28.222656 188.476562 27.433594 189.335938 26.320312 C 189.972656 25.523438 190.378906 25.023438 190.558594 24.820312 C 190.742188 24.613281 190.886719 24.511719 191 24.511719 C 191.089844 24.511719 191.164062 24.53125 191.222656 24.578125 C 191.277344 24.625 191.308594 24.679688 191.308594 24.75 C 191.308594 24.84375 191.160156 25.117188 190.867188 25.570312 C 190.34375 26.410156 189.726562 27.261719 189.015625 28.128906 C 188.300781 28.992188 187.566406 29.730469 186.804688 30.34375 C 186.046875 30.957031 185.363281 31.261719 184.753906 31.261719 Z M 184.753906 31.261719 " fill-opacity="1" fill-rule="nonzero"/><path fill="#007bff" d="M 191.40625 31.671875 C 190.816406 31.671875 190.355469 31.472656 190.015625 31.074219 C 189.675781 30.679688 189.503906 30.0625 189.503906 29.21875 C 189.503906 28.265625 189.734375 27.207031 190.199219 26.046875 C 190.664062 24.886719 191.441406 23.375 192.527344 21.511719 L 193.378906 20.078125 C 193.148438 20.125 192.859375 20.203125 192.507812 20.316406 C 192.15625 20.429688 191.8125 20.566406 191.472656 20.722656 C 191.132812 20.886719 190.929688 20.964844 190.863281 20.964844 C 190.679688 20.964844 190.59375 20.816406 190.59375 20.523438 C 190.59375 20.246094 190.660156 19.960938 190.792969 19.667969 C 190.929688 19.371094 191.101562 19.214844 191.304688 19.191406 C 191.734375 19.121094 192.15625 19.066406 192.578125 19.023438 C 192.996094 18.976562 193.5 18.929688 194.089844 18.886719 C 194.835938 17.496094 195.492188 16.371094 196.058594 15.507812 C 196.511719 14.804688 196.898438 14.292969 197.214844 13.972656 C 197.53125 13.652344 197.824219 13.492188 198.097656 13.492188 C 198.347656 13.492188 198.601562 13.558594 198.863281 13.683594 C 199.121094 13.808594 199.335938 13.957031 199.503906 14.128906 C 199.675781 14.296875 199.761719 14.453125 199.761719 14.589844 C 199.761719 14.609375 199.683594 14.675781 199.527344 14.789062 C 199.183594 15.0625 198.742188 15.507812 198.199219 16.121094 C 197.65625 16.734375 197 17.609375 196.230469 18.746094 C 196.839844 18.703125 197.859375 18.679688 199.285156 18.679688 C 199.375 18.679688 199.449219 18.703125 199.503906 18.746094 C 199.5625 18.792969 199.589844 18.851562 199.589844 18.917969 C 199.589844 19.078125 199.410156 19.207031 199.046875 19.3125 C 198.683594 19.414062 198.140625 19.53125 197.417969 19.667969 C 196.941406 19.757812 196.480469 19.867188 196.027344 19.992188 C 195.570312 20.117188 195.277344 20.238281 195.144531 20.351562 C 194.078125 22.078125 193.203125 23.71875 192.507812 25.277344 C 191.820312 26.835938 191.472656 28.160156 191.472656 29.253906 C 191.472656 29.640625 191.535156 29.914062 191.660156 30.074219 C 191.785156 30.230469 191.960938 30.308594 192.1875 30.308594 C 192.664062 30.308594 193.304688 30.027344 194.105469 29.457031 C 194.910156 28.890625 195.570312 28.332031 196.09375 27.789062 C 196.457031 27.378906 196.863281 26.878906 197.316406 26.285156 C 197.792969 25.671875 198.167969 25.199219 198.453125 24.871094 C 198.738281 24.539062 198.933594 24.375 199.046875 24.375 C 199.136719 24.375 199.210938 24.398438 199.269531 24.445312 C 199.324219 24.488281 199.355469 24.542969 199.355469 24.613281 C 199.355469 24.679688 199.34375 24.726562 199.320312 24.75 C 199.046875 25.230469 198.675781 25.796875 198.199219 26.457031 C 197.722656 27.113281 197.238281 27.730469 196.738281 28.296875 C 195.902344 29.300781 195.027344 30.109375 194.121094 30.734375 C 193.21875 31.359375 192.3125 31.671875 191.40625 31.671875 Z M 191.40625 31.671875 " fill-opacity="1" fill-rule="nonzero"/><path fill="#007bff" d="M 201.015625 31.332031 C 200.042969 31.332031 199.234375 31.09375 198.585938 30.617188 C 197.941406 30.140625 197.621094 29.308594 197.621094 28.128906 C 197.621094 27.011719 198.039062 25.6875 198.878906 24.152344 C 199.714844 22.617188 200.769531 21.300781 202.035156 20.195312 C 203.304688 19.09375 204.5625 18.542969 205.804688 18.542969 C 206.441406 18.542969 206.910156 18.707031 207.21875 19.039062 C 207.523438 19.367188 207.675781 19.792969 207.675781 20.316406 C 207.675781 21.226562 207.238281 22.148438 206.367188 23.082031 C 205.496094 24.015625 204.449219 24.78125 203.226562 25.382812 C 202 25.984375 200.949219 26.285156 200.066406 26.285156 C 199.820312 26.855469 199.695312 27.386719 199.695312 27.886719 C 199.695312 28.570312 199.808594 29.113281 200.03125 29.523438 C 200.257812 29.933594 200.710938 30.136719 201.390625 30.136719 C 202.363281 30.136719 203.28125 29.878906 204.140625 29.355469 C 205.003906 28.832031 205.785156 28.183594 206.484375 27.410156 C 207.1875 26.636719 207.945312 25.667969 208.761719 24.511719 C 208.851562 24.398438 208.941406 24.339844 209.03125 24.339844 C 209.101562 24.339844 209.15625 24.386719 209.203125 24.480469 C 209.246094 24.566406 209.269531 24.671875 209.269531 24.785156 C 209.269531 24.945312 209.214844 25.132812 209.101562 25.347656 C 208.988281 25.5625 208.785156 25.863281 208.488281 26.25 C 207.652344 27.410156 206.855469 28.351562 206.097656 29.082031 C 205.335938 29.808594 204.542969 30.367188 203.71875 30.753906 C 202.890625 31.136719 201.988281 31.332031 201.015625 31.332031 Z M 200.371094 25.601562 C 201.117188 25.558594 201.980469 25.21875 202.953125 24.582031 C 203.925781 23.945312 204.769531 23.226562 205.484375 22.429688 C 206.195312 21.632812 206.554688 21 206.554688 20.523438 C 206.554688 20.203125 206.417969 20.046875 206.148438 20.046875 C 205.671875 20.046875 205.058594 20.320312 204.3125 20.867188 C 203.5625 21.410156 202.828125 22.113281 202.105469 22.980469 C 201.378906 23.84375 200.800781 24.714844 200.371094 25.601562 Z M 200.371094 25.601562 " fill-opacity="1" fill-rule="nonzero"/></svg>